# xmcd
# Copyright (C) 1995-1998 Ti Kan
#
# Track frame offsets:
#       150
#       16492
#       32211
#       45802
#       58287
#       74416
#       91150
#       105817
#       124688
#       139189
#       152514
#
# Disc length: 2477 seconds
#
# Revision: 0
# Processed by: cddbd v1.5.2PL0 Copyright (c) Steve Scherf et al.
# Submitted via: CD-Import v1.0
#
DISCID=8609ab0b
DTITLE=Art Brut - Art Brut Vs. Satan
DYEAR=2009
DGENRE=
TTITLE0=Alcoholics Unanimous
TTITLE1=Dc Comics And Chocolate Milkish
TTITLE2=The Passenger
TTITLE3=Am I Normal?
TTITLE4=What A Rush
TTITLE5=Demons Out!
TTITLE6=Slad Dash For No Cash
TTITLE7=The Replacements
TTITLE8=Twist And Shout
TTITLE9=Summer Job
TTITLE10=Mysterious Bruises
EXTD=
EXTT0=
EXTT1=
EXTT2=
EXTT3=
EXTT4=
EXTT5=
EXTT6=
EXTT7=
EXTT8=
EXTT9=
EXTT10=
PLAYORDER=
